<svg version="1.1" xmlns="http://www.w3.org/2000/svg" viewBox="0 0 788.3333333333335 272.1491569390404" width="788.3333333333335" height="272.1491569390404">
  <!-- svg-source:excalidraw -->
  
  <defs>
    <style class="style-fonts">
      @font-face {
        font-family: "Virgil";
        src: url("https://excalidraw.com/Virgil.woff2");
      }
      @font-face {
        font-family: "Cascadia";
        src: url("https://excalidraw.com/Cascadia.woff2");
      }
    </style>
  </defs>
  <rect x="0" y="0" width="788.3333333333335" height="272.1491569390404" fill="#ffffff"></rect><g stroke-linecap="round" transform="translate(10 134.06939040207527) rotate(0 384.16666666666674 45.196173800259345)"><path d="M0 0 C0 0, 0 0, 0 0 M0 0 C0 0, 0 0, 0 0 M0.49 22.31 C4.23 21.26, 7.27 16.17, 19.16 0.15 M0.48 22.33 C6.47 13.45, 17.74 4.42, 21.68 0.4 M-1.82 49.79 C14.45 30.91, 32.97 15.93, 45.85 1.14 M-1.31 47.98 C11.27 33.53, 21.72 22.88, 42.79 1.36 M-1.67 75.47 C22.35 49.34, 37.82 29.85, 62.05 0.21 M1.19 72.84 C14.88 59.94, 28.13 43.8, 63.22 -1.81 M4.17 91.33 C35.17 53.85, 64.69 21.95, 85.89 -2.24 M2.38 92.05 C37.41 59.1, 68.06 22.56, 86.81 -1.43 M26.59 91.86 C44.72 72.39, 64.3 44.85, 110.03 3.51 M26.88 91.86 C46.1 72.84, 63.41 46.98, 104.46 0.2 M44.84 91.82 C69.4 63.03, 102.19 35.22, 129.8 -3.52 M45.22 94.51 C77.69 58.49, 108.58 23.67, 125.04 1.95 M69.23 92.19 C96.88 64.97, 123.54 33.99, 150.55 1.27 M67.27 91.24 C97.42 57.03, 129.67 22.99, 149.7 -0.82 M87.44 92.52 C106.08 72.45, 123.62 59.27, 172.46 3.81 M87.55 93.87 C113.55 63.79, 136.83 36.74, 167.52 -1.31 M111.94 95.15 C137.12 65.5, 160.44 32.11, 189.93 3.59 M107.47 94.07 C128.74 70.93, 148.7 49.69, 189.78 2.05 M132.77 93.02 C161.03 64.5, 182.41 31.83, 211.64 -2.32 M130.97 94.32 C156.35 64.64, 183.42 32.29, 212.91 0.72 M148.95 89.89 C167.3 74.69, 187.1 51.02, 233.36 3.96 M150.85 95.23 C185.32 57.72, 215.48 19.37, 234.12 -1.56 M172.55 92.31 C192.41 74.66, 208.22 52.28, 250.64 -3.61 M171.65 94.72 C202.96 60.21, 232.94 23.97, 255.06 1.61 M193.42 92.94 C207.8 72.93, 233.52 47.88, 279.6 0.23 M193.36 94.33 C219.8 61.94, 243.64 35.47, 277.37 1.65 M216 93.74 C228.88 70.94, 248.54 53.92, 297.64 3.34 M214.98 93.64 C247.79 55.61, 279.08 19.57, 298.4 1.39 M240.02 97.24 C269.11 54.5, 301.66 22.03, 320.25 3.38 M238.19 92.64 C268.25 60.73, 298.99 22, 318.74 1.43 M257.26 89.8 C278.83 70.91, 304.15 43.82, 341.69 -0.92 M258.93 94.07 C287.47 57.61, 321.54 20.5, 337.92 -1.47 M280.3 96.82 C304.5 61.54, 333.75 27.75, 363.15 -1.74 M279.07 93.87 C303.66 61.27, 330.85 30.75, 361.33 0.72 M299.3 94.07 C323.7 71.03, 346.93 42.79, 384.06 -1.97 M302.01 91.45 C327.57 62.89, 356.48 30.3, 382.51 -1.32 M318.04 95.61 C342.26 73.14, 354.76 59.2, 402.97 -3.4 M319.65 92.92 C336.64 74.19, 355.27 55.85, 402.8 0.63 M345.34 94.05 C369.53 61.64, 396.67 30.08, 424.87 -2.52 M342.64 94.39 C368.4 63.02, 395.52 34.29, 425.61 -0.32 M363.85 96.37 C386.57 67.1, 410.81 37.39, 441.31 1.5 M364.1 92.89 C393.52 60.09, 422.85 22.72, 443.39 0.97 M385.43 96.08 C403.45 72.1, 426.88 49.29, 467.14 -1.92 M385.8 93.71 C412.26 61.01, 438.64 26.79, 465.24 0.04 M407.25 97.29 C433.98 58.28, 466.7 24.93, 489.27 -3.56 M405.19 93.54 C431.33 63.06, 458.33 35.53, 488.55 1.23 M424.53 89.9 C444.63 69.99, 458.76 52.01, 511.42 0.89 M427.02 94.88 C449.83 66.98, 474.68 38.81, 510.62 0 M451.29 96.9 C468.73 70.94, 481.04 55.43, 526.85 2.03 M446.92 92.35 C467.05 70.51, 486.96 52.39, 528.3 1.35 M469.13 93.6 C502.01 60.21, 533.22 22.09, 555.14 0.06 M471.08 95.11 C490.43 69.51, 510.89 45.32, 549.58 -1.81 M487.91 94.88 C506.38 70.62, 530.83 57, 574.91 -4.01 M491.84 93.22 C514.6 66.7, 534.5 45.62, 573.23 -2.3 M510.59 90.42 C534.95 63.44, 558.79 42.24, 591.94 -0.35 M511.32 92.01 C541.12 63.07, 567.82 27.45, 591.8 0.46 M529.25 92.76 C555.76 73.65, 571.81 50.07, 614.53 1.93 M532.4 95.23 C553.16 68.52, 575.38 48.17, 613.82 -0.17 M556.5 93.46 C577.8 66.81, 607.21 29.92, 638.32 2.56 M552.96 92.39 C581.79 62.46, 607.06 34.92, 635.54 0.83 M578.29 90.95 C598.72 66.32, 627.32 39.66, 653.65 -1.67 M577.59 93.66 C605.85 58.06, 636.16 22.08, 655.11 -0.5 M593.28 94.7 C617.43 67.25, 634.99 44.55, 681.67 -0.91 M595.79 93.23 C624.24 64.49, 648.98 35.62, 679.62 2.02 M616.94 93.25 C645.33 67.55, 666.93 35.53, 699.1 3.03 M617 92.47 C646.42 63.75, 673.14 30.48, 700.69 -0.87 M638.28 93.48 C668.02 57.62, 697.64 23.19, 722.93 3.9 M638.17 94.23 C667.86 61.1, 693.99 30.14, 722.1 0.43 M664.62 95.83 C681.35 73.39, 698.18 49.92, 743.23 -1.73 M659.42 93.31 C684.82 64.5, 715.24 32.12, 743.4 0.84 M678.35 93.55 C705.44 68.01, 721.51 47.21, 759.88 0.78 M683.67 94.76 C710.88 64.6, 736.92 31.69, 763.58 -1.1 M705.64 95.97 C733.28 62.11, 757.61 36.18, 780.09 11.7 M704.23 92.28 C725.23 64.73, 746.79 37.9, 777.43 7.49 M725.24 95.75 C742.04 75.43, 756.78 57.89, 775.01 31.11 M724.45 94.62 C744.91 67.9, 766.46 46.97, 779.05 31.15 M745.17 92.1 C757.88 81.25, 765.19 73.86, 775.56 60.26 M745.35 91.9 C756.96 81.9, 769.1 67.53, 776.52 58.54 M-0.23 90.19 C-0.23 90.19, -0.23 90.19, -0.23 90.19 M-0.23 90.19 C-0.23 90.19, -0.23 90.19, -0.23 90.19 M21.53 89.31 C16.65 86.98, 10.75 80.23, -1.42 71.87 M23.53 90.7 C15.69 79.99, 5.63 74.64, 1.12 67.74 M49.87 92.96 C36.23 75.21, 20.67 69.58, -3.2 46.97 M50.32 91.12 C37.37 80.72, 25.49 70.94, -0.63 47.9 M75.52 93.41 C41.19 65.25, 10.57 38.22, 0.74 24.32 M71.69 89.21 C44.73 67.93, 15.38 42.85, 2.05 26.01 M98.79 94.19 C63.55 60.5, 27.82 23.86, 2.19 6.83 M97.82 88.46 C60.68 59.75, 27.94 29.36, 0.39 6.01 M124.06 86.83 C95.27 64.08, 59.59 37.63, 7.33 -6.77 M120.56 89.92 C83.18 53.98, 43.2 21.76, 7.5 -10.57 M146.24 88.22 C101.47 50.8, 51.97 11.39, 32.37 -6.51 M146.8 88.73 C114.47 64.8, 84.58 41.46, 32.88 -10.17 M169.32 89.81 C131.46 58.24, 95.82 22.59, 58.69 -10.24 M171.83 90.42 C125.44 53.86, 80.1 11.15, 56.41 -7.08 M192.33 93.52 C154.14 55.45, 115.04 19.19, 76.8 -6.31 M196.23 89.94 C168.52 64.92, 139.14 43.56, 79.23 -10.98 M216.11 89.72 C191.61 65.92, 153.47 29.9, 103.8 -12.08 M219.48 88.76 C192.7 65.38, 164.32 41.85, 104.03 -10.4 M245.3 93.05 C198.87 55.17, 162.55 14.94, 126.05 -8 M244.86 89.86 C210.74 63.1, 180.71 36.78, 128.64 -7.61 M266.85 91.74 C230.72 64.16, 199.1 30.75, 157.27 -5.71 M268.81 90.1 C239.73 67.82, 215.12 42.3, 154.95 -7.6 M292.52 92.85 C261.96 69.84, 237.52 41.2, 176.93 -10.79 M294.29 88.67 C258.44 58.63, 221.11 27.46, 178.23 -9.72 M320.85 94.15 C276.38 55.59, 240.15 27.51, 204.84 -9.46 M315.68 90.02 C280.39 55.51, 243.84 25.8, 204.56 -7.28 M343.97 94.1 C302.5 54.98, 260.37 20.56, 231.11 -4.76 M340.41 89.02 C296.85 53.53, 252.14 12.97, 227.67 -8.54 M365.54 87.71 C320.38 47.22, 272.66 11.83, 254.89 -6.51 M365.78 89.9 C328.51 55.87, 288.55 24.35, 250.57 -7.61 M387.28 87.79 C350.81 55.16, 302.8 18.76, 278.39 -11.52 M388.42 90.67 C355.69 62.73, 319.93 30.84, 274.45 -9.5 M411.46 90.28 C380.12 64.51, 349.3 30.34, 301.4 -6.27 M413.59 91.51 C389.59 69.3, 366.38 48.25, 300.01 -9.67 M442.93 94.03 C403.14 59.81, 361.85 26.59, 323.71 -9.61 M440.1 89.78 C405.37 62.27, 365.97 28.57, 324.87 -9.65 M463.81 86.87 C427.25 59.61, 392.96 26.6, 347.23 -4.99 M461.92 89.1 C434.91 69.17, 406.37 43.54, 348.45 -10.08 M483.54 89.39 C442.1 51.97, 401.69 19.21, 374.62 -10.38 M489.03 90.33 C458.19 60.74, 426.25 33.24, 373.55 -9.55 M509.37 88.26 C476.49 62.91, 439.49 30.84, 395.37 -10.48 M512.87 92 C482.68 67.71, 456.5 40.14, 399.29 -9.68 M532.84 89.52 C493.63 51.78, 448.42 15.49, 420.29 -7.42 M535.61 90.68 C502.93 64.62, 473.48 37.43, 422.42 -10.67 M563.82 90.38 C536.48 65.04, 512.25 43.42, 443.95 -7.46 M563.13 91.99 C522.82 60.34, 486.34 25.68, 446.73 -10.93 M589.21 89.26 C549.94 58.06, 508.51 20.9, 470.77 -9.19 M586.55 91.68 C559.09 67.09, 530.07 44.69, 471.95 -8.06 M606.98 89.61 C566.13 49.55, 523.31 10.54, 497.7 -9.47 M611.18 90.63 C572.1 61.03, 533.82 27.8, 495.31 -9.79 M636.64 89.21 C587.65 48.8, 545.98 11.15, 517 -7.01 M633.86 91.26 C601.45 67.28, 570.25 40.31, 521.22 -10.3 M657.76 93.43 C614.83 57.82, 575.14 16.66, 546.98 -8.29 M656.32 89.89 C634.94 70.02, 607.91 45.68, 542.85 -9.14 M683.98 87.09 C655.34 69.81, 630.48 48.41, 570.02 -7.77 M682.12 91.78 C644.78 56.13, 606.22 24.85, 567.06 -8.22 M705.72 92.47 C663.11 58.36, 626.2 15.52, 591.04 -6.56 M706.18 92.19 C673.59 63.83, 641.56 33.61, 591.75 -7.44 M732.23 93.11 C690.18 56.06, 651.04 20.61, 616.02 -7.22 M731.74 91.4 C704.5 69.38, 682.19 48.17, 619.18 -8.23 M754.04 87.14 C730.87 74.19, 704.52 48.06, 646 -9.81 M755.68 91.06 C713.36 55.17, 674.98 19.21, 640.96 -6.67 M770.71 86.64 C731.02 47.86, 694.08 16.49, 667.8 -9.98 M775.13 84.77 C740.96 57.78, 710.85 27.95, 667.56 -8.27 M771.08 59.44 C745.7 41.84, 712.78 11.66, 688.08 -11.08 M774.6 62.92 C741.23 35.3, 713 11.98, 689.25 -9.07 M774.7 41.31 C757.89 32.89, 744.45 12.59, 711.78 -10.89 M774.33 40.08 C749.08 20.55, 726.57 2.8, 713.49 -7.19 M776.09 24.5 C761.2 9.64, 756.76 4.95, 736.66 -12.34 M773.35 18.62 C763.55 12.36, 750.21 0.81, 738.22 -10.45" stroke="#dc9498" stroke-width="2" fill="none"></path><path d="M1.03 1.35 C159.65 -0.74, 321.12 -0.02, 768.18 1.38 M0.5 -0.16 C251.32 2.17, 503.3 1.72, 768.32 -0.26 M768.78 1.44 C770.33 36.63, 768.17 69.79, 768.68 91.63 M768.15 0.77 C770.1 19.13, 769.68 39.51, 768.8 89.87 M768.25 91.48 C502.68 85.28, 237.67 84.19, 0.03 90.88 M768.49 91.05 C464.25 88.46, 160.47 87.2, -0.12 90.54 M-2.55 89 C-0.36 69.67, 0.25 41.67, -0.62 1.9 M1.07 91.17 C-3.39 63.07, -2.16 30.33, 0.71 -0.79" stroke="#e45d61" stroke-width="4" fill="none"></path></g><g transform="translate(271.81553188943633 235.24254215304813) rotate(0 121.97665369649809 13.453307392996123)"><text x="121.9766536964981" y="18.906614785992222" font-family="Virgil, Papyrus, Segoe UI Emoji" font-size="21.52529182879378px" fill="#181818" text-anchor="middle" style="white-space: pre;" direction="ltr">Colorize Java Commons</text></g><g transform="translate(10.622060207637702 89.07555123216599) rotate(0 79.22503242542153 13.453307392996123)"><text x="79.22503242542155" y="18.906614785992222" font-family="Virgil, Papyrus, Segoe UI Emoji" font-size="21.52529182879378px" fill="#181818" text-anchor="middle" style="white-space: pre;" direction="ltr">All applications</text></g><g transform="translate(11.21998498065976 48.26718547341119) rotate(0 200.60376134889756 13.453307392996123)"><text x="200.60376134889756" y="18.906614785992222" font-family="Virgil, Papyrus, Segoe UI Emoji" font-size="21.525291828793776px" fill="#181818" text-anchor="middle" style="white-space: pre;" direction="ltr">GUI applications (desktop/mobile/web)</text></g><g transform="translate(13.611684072747934 10) rotate(0 109.12127107652401 13.453307392996123)"><text x="109.12127107652401" y="18.906614785992222" font-family="Virgil, Papyrus, Segoe UI Emoji" font-size="21.525291828793776px" fill="#181818" text-anchor="middle" style="white-space: pre;" direction="ltr">Desktop applications</text></g><g stroke-linecap="round" transform="translate(17.474059662775616 143.03826199740593) rotate(0 41.48103112840469 35.50178339818419)"><path d="M1.65 3.68 L83.68 2.53 L86.66 72.78 L-2.02 69.55" stroke="none" stroke-width="0" fill="#ffffff"></path><path d="M1.69 2.9 C28.36 2.36, 64.78 -1.27, 79.37 0.91 M1.25 -0.3 C21.97 -0.47, 45.08 -0.06, 81.96 1.3 M81.37 1.19 C81.92 23.56, 85.18 42.04, 86.5 74.47 M83.33 -0.44 C81.05 17.61, 83.66 32.6, 84.18 72.58 M82.95 73.57 C61.8 74.21, 44.8 69.37, -1.63 69 M84.72 69.39 C56.98 71.44, 29.58 72.01, -0.33 70.07 M3.49 74.48 C-2.07 45.2, 0.14 26.74, 2.2 -0.41 M-1.68 70.36 C0.5 46.11, 1.18 25.72, 1.91 1.77" stroke="#e45d61" stroke-width="2" fill="none"></path></g><g stroke-linecap="round" transform="translate(113.88942931258111 143.03826199740593) rotate(0 41.48103112840471 35.50178339818419)"><path d="M0.72 2.53 L86.66 1.77 L80.94 69.55 L-2.63 74.63" stroke="none" stroke-width="0" fill="#ffffff"></path><path d="M-2.29 2.05 C26.79 -2.79, 43.01 -0.29, 81.76 3.42 M-0.42 -0.41 C25.51 0.25, 49.4 1.55, 83.04 1.06 M81.17 1.98 C83.86 26.21, 85.93 58.13, 80.45 70.52 M81.22 0.76 C84.09 20.73, 84.44 45.23, 81.77 72.98 M81.73 73.82 C57.82 70.04, 27.66 70.07, 0.81 67.32 M83.56 72.38 C62.54 71.61, 42.22 68.73, 0.7 72.66 M-0.89 69 C0.08 51.95, 0.96 25.84, 0.98 1.61 M1.07 69.15 C2.94 53.41, 3.1 35.97, 0.83 1.84" stroke="#e45d61" stroke-width="2" fill="none"></path></g><g stroke-linecap="round" transform="translate(208.8099870298314 143.03826199740593) rotate(0 41.48103112840471 35.50178339818419)"><path d="M3.7 1.77 L80.94 -1.46 L80.34 74.63 L3.91 74.77" stroke="none" stroke-width="0" fill="#fff"></path><path d="M3.49 -1.59 C27.31 0.06, 60.59 2.57, 83.11 2.5 M0.31 0 C22.66 1.64, 47.4 1.4, 84.66 -0.8 M84.42 -1.12 C85.86 26.88, 79.81 46.35, 83.26 71.73 M83.83 -1.09 C82.94 21.3, 80.53 41.42, 83.43 71 M84.65 68.98 C51.12 70.17, 23.35 68.49, -2.26 74.53 M82.74 72.95 C64.41 71.21, 47.24 73.8, 0.3 72.75 M1.32 74.33 C2.51 43.12, 1.3 17.67, -1.63 -3.36 M1.75 71.81 C1.15 53.77, 0.07 34.82, 0.36 1.26" stroke="#e45d61" stroke-width="2" fill="none"></path></g><g stroke-linecap="round" transform="translate(305.22535667963695 143.03826199740593) rotate(0 41.48103112840468 35.50178339818419)"><path d="M-2.02 -1.46 L80.34 3.63 L86.87 74.77 L1.54 74.86" stroke="none" stroke-width="0" fill="#fff"></path><path d="M-3.59 0.91 C27.93 4.08, 58.41 3.16, 82.37 -0.84 M-1 1.3 C23.26 1.06, 48.07 -0.8, 83.56 -0.9 M86.5 3.47 C80.97 24.32, 83.78 50.35, 82.07 67.52 M84.18 1.58 C82.38 25.99, 84.05 48.02, 84.25 70.39 M81.33 69 C53.04 66.48, 19.23 73.69, -3.22 72.19 M82.63 70.07 C53.07 74.28, 22.08 74.36, 1.74 70.56 M2.2 70.6 C0.51 54.88, -2.1 32.18, -1.29 2.14 M1.91 72.78 C-0.42 58.11, -0.89 42.79, 1.85 0.89" stroke="#e45d61" stroke-width="2" fill="none"></path></g><g transform="translate(226.36932555123224 172.78501945525295) rotate(0 24.215953307392994 5.979247730220493)"><text x="24.215953307393" y="7.958495460440988" font-family="Virgil, Papyrus, Segoe UI Emoji" font-size="9.56679636835279px" fill="#e45d61" text-anchor="middle" style="white-space: pre;" direction="ltr">Statistics</text></g><g stroke-linecap="round" transform="translate(400.1459143968872 143.03826199740593) rotate(0 41.48103112840471 35.50178339818419)"><path d="M2.12 1.62 L84.48 -2.93 L80.71 70.5 L2.07 69.4" stroke="none" stroke-width="0" fill="#fff"></path><path d="M-2.31 -2.16 C31.22 1.76, 58.63 1.49, 86.19 2.84 M-0.65 0.59 C21.24 0.09, 38.26 -1.01, 84.36 -1.42 M85.05 3.26 C83.61 21.97, 81.66 41.1, 82.93 70.48 M82.27 1 C85.73 21.12, 84.61 42.54, 82.39 71.21 M85.31 67.33 C60.79 67.61, 46.95 66.03, 1.86 74.46 M81.22 71.6 C64.35 70.24, 43.12 69.9, -1.97 71.97 M-0.14 71.43 C-4.96 44.56, 0.29 27.9, 3.03 0.29 M0.78 72.19 C-1.27 50.9, 0.38 26.55, 0.24 -0.2" stroke="#e45d61" stroke-width="2" fill="none"></path></g><g transform="translate(24.125162127107785 163.21822308690014) rotate(0 34.380674448767834 17.93774319066148)"><text x="34.380674448767834" y="7.958495460440986" font-family="Virgil, Papyrus, Segoe UI Emoji" font-size="9.56679636835279px" fill="#e45d61" text-anchor="middle" style="white-space: pre;" direction="ltr">Cross-platform</text><text x="34.380674448767834" y="19.91699092088197" font-family="Virgil, Papyrus, Segoe UI Emoji" font-size="9.56679636835279px" fill="#e45d61" text-anchor="middle" style="white-space: pre;" direction="ltr">application</text><text x="34.380674448767834" y="31.875486381322958" font-family="Virgil, Papyrus, Segoe UI Emoji" font-size="9.56679636835279px" fill="#e45d61" text-anchor="middle" style="white-space: pre;" direction="ltr">data</text></g><g stroke-linecap="round" transform="translate(496.56128404669266 143.03826199740593) rotate(0 41.48103112840471 35.50178339818419)"><path d="M1.52 -2.93 L80.71 -0.5 L85.03 69.4 L-0.3 72.42" stroke="none" stroke-width="0" fill="#fff"></path><path d="M0.24 2.35 C24.51 2.97, 58.91 3.74, 80.57 -1.11 M1.32 0.57 C25.71 -1.02, 55.99 -1.91, 82.61 -1.34 M84.56 1.92 C83.35 29.39, 83.67 56.23, 83.42 74.98 M84.31 -0.99 C82.71 25.76, 81.9 55.1, 81.59 72.8 M79.98 68.75 C66.18 65.65, 46.52 72.94, -2.13 73.41 M84.84 71.08 C63.37 71.23, 39.57 72.47, 0.51 72.39 M-3.97 67.67 C1.32 55.78, 3.07 34.61, 0.4 -1.11 M-1.67 72.92 C-0.57 52.04, -0.31 33.73, 1.06 0.81" stroke="#e45d61" stroke-width="2" fill="none"></path></g><g transform="translate(500.9212062256811 159.8521400778211) rotate(0 36 19.5)"><text x="36" y="9" font-family="Virgil, Papyrus, Segoe UI Emoji" font-size="9.56679636835279px" fill="#e45d61" text-anchor="middle" style="white-space: pre;" direction="ltr">Cross-platform</text><text x="36" y="22" font-family="Virgil, Papyrus, Segoe UI Emoji" font-size="9.56679636835279px" fill="#e45d61" text-anchor="middle" style="white-space: pre;" direction="ltr">HTTP</text><text x="36" y="35" font-family="Virgil, Papyrus, Segoe UI Emoji" font-size="9.56679636835279px" fill="#e45d61" text-anchor="middle" style="white-space: pre;" direction="ltr">requests</text></g><g stroke-linecap="round" transform="translate(591.4818417639431 143.03826199740593) rotate(0 41.48103112840471 35.50178339818419)"><path d="M0.46 -3.03 L84.55 0.35 L81.95 73.48 L-3.95 71.06" stroke="none" stroke-width="0" fill="#fff"></path><path d="M-0.36 -2.3 C20.6 -4.74, 35.44 0.49, 84.51 -3.51 M1.91 -0.22 C32.74 -1.18, 62.39 -0.25, 83.03 -0.19 M81.98 1.6 C87.35 28.09, 87.6 51.29, 85.16 72.94 M81.56 -1.57 C80.46 24.58, 81.72 48.79, 83.33 71.99 M82.85 73.62 C56.19 69.47, 29.42 76.13, -1.99 68.89 M81.48 69.86 C60.53 71.12, 33.18 69.53, 1.68 69.1 M-2.09 72.85 C1.32 49.11, 3.7 32.33, -2.45 3.72 M1.66 72.4 C0.5 50.6, 2.5 31.52, 1.72 1.18" stroke="#e45d61" stroke-width="2" fill="none"></path></g><g transform="translate(608.2237354085604 168.59954604409864) rotate(0 23.61802853437092 11.958495460440986)"><text x="23.61802853437095" y="7.958495460440988" font-family="Virgil, Papyrus, Segoe UI Emoji" font-size="9.56679636835279px" fill="#e45d61" text-anchor="middle" style="white-space: pre;" direction="ltr">Animation</text><text x="23.61802853437095" y="19.916990920881975" font-family="Virgil, Papyrus, Segoe UI Emoji" font-size="9.56679636835279px" fill="#e45d61" text-anchor="middle" style="white-space: pre;" direction="ltr">framework</text></g><g stroke-linecap="round" transform="translate(687.8972114137484 143.03826199740593) rotate(0 41.48103112840471 35.50178339818419)"><path d="M-0.59 1.93 L80.98 3.19 L83.94 68.35 L1.06 72.07" stroke="none" stroke-width="0" fill="#fff"></path><path d="M2.56 2.18 C17.36 3.76, 38.7 -0.4, 84.51 1.68 M-0.52 -1.59 C20.17 -0.64, 42.22 -2.61, 83.41 1.83 M79.48 3.04 C80.48 17.86, 84.61 34.1, 82.27 72.4 M81.91 1.22 C82.59 15.78, 81.9 33.41, 82.27 71.49 M81.86 73.69 C52.74 74.67, 27.4 68.78, 2.66 67.71 M84.75 72.15 C63.21 67.93, 45.81 69.06, -1.62 71.91 M3.19 71.34 C-2.87 39.76, 1.33 16.88, -3.27 -1.72 M1.37 71.18 C0.24 55.22, 0.83 38.85, 1.4 0.17" stroke="#e45d61" stroke-width="2" fill="none"></path></g><g transform="translate(705.237029831388 163.21822308690014) rotate(0 23.020103761348878 17.93774319066148)"><text x="23.0201037613489" y="7.958495460440986" font-family="Virgil, Papyrus, Segoe UI Emoji" font-size="9.56679636835279px" fill="#e45d61" text-anchor="middle" style="white-space: pre;" direction="ltr">Swing</text><text x="23.0201037613489" y="19.91699092088197" font-family="Virgil, Papyrus, Segoe UI Emoji" font-size="9.56679636835279px" fill="#e45d61" text-anchor="middle" style="white-space: pre;" direction="ltr">component</text><text x="23.0201037613489" y="31.875486381322958" font-family="Virgil, Papyrus, Segoe UI Emoji" font-size="9.56679636835279px" fill="#e45d61" text-anchor="middle" style="white-space: pre;" direction="ltr">library</text></g><g stroke-linecap="round"><g transform="translate(257.01767185473415 22.85538261997408) rotate(0 253.32460796782408 -0.6342462826534643)"><path d="M1.41 0.06 C137.82 -1.49, 276.71 -2.81, 505.24 0.32" stroke="#adadad" stroke-width="2.5" fill="none" stroke-dasharray="8 10"></path></g><g transform="translate(257.01767185473415 22.85538261997408) rotate(0 253.32460796782408 -0.6342462826534643)"><path d="M480.47 10.45 C481.48 8.63, 488.64 2.56, 508.03 1.12" stroke="#adadad" stroke-width="2.5" fill="none"></path></g><g transform="translate(257.01767185473415 22.85538261997408) rotate(0 253.32460796782408 -0.6342462826534643)"><path d="M480.67 -10.07 C481.52 -6.23, 488.62 -6.63, 508.03 1.12" stroke="#adadad" stroke-width="2.5" fill="none"></path></g></g><mask></mask><g stroke-linecap="round"><g transform="translate(433.4054798962386 60.82360570687422) rotate(0 113.69796592440372 1.2924636970996062)"><path d="M-2.5 0.12 C56.77 0.31, 114.19 3.26, 229.9 2.26" stroke="#adadad" stroke-width="2.5" fill="none" stroke-dasharray="8 10"></path></g><g transform="translate(433.4054798962386 60.82360570687422) rotate(0 113.69796592440372 1.2924636970996062)"><path d="M198.78 12.66 C209.84 8.66, 218.53 9.58, 233.47 4.9" stroke="#adadad" stroke-width="2.5" fill="none"></path></g><g transform="translate(433.4054798962386 60.82360570687422) rotate(0 113.69796592440372 1.2924636970996062)"><path d="M198.78 -7.86 C209.44 -6.8, 218.14 -0.83, 233.47 4.9" stroke="#adadad" stroke-width="2.5" fill="none"></path></g></g><mask></mask><g stroke-linecap="round"><g transform="translate(194.79166666666663 104.37035478144367) rotate(0 183.8312214795092 0.0952852329814391)"><path d="M0.45 0.37 C105.57 1.25, 208.38 4.24, 367.22 -1.71" stroke="#adadad" stroke-width="2.5" fill="none" stroke-dasharray="8 10"></path></g><g transform="translate(194.79166666666663 104.37035478144367) rotate(0 183.8312214795092 0.0952852329814391)"><path d="M340 9.84 C351.21 5.3, 358.58 6.97, 370.77 -4.45" stroke="#adadad" stroke-width="2.5" fill="none"></path></g><g transform="translate(194.79166666666663 104.37035478144367) rotate(0 183.8312214795092 0.0952852329814391)"><path d="M339.49 -10.68 C350.6 -9.42, 358.12 -1.95, 370.77 -4.45" stroke="#adadad" stroke-width="2.5" fill="none"></path></g></g><mask></mask><g transform="translate(127.5058365758756 165.21822308690014) rotate(0 28 13)"><text x="28" y="9" font-family="Virgil, Papyrus, Segoe UI Emoji" font-size="9.56679636835279px" fill="#e45d61" text-anchor="middle" style="white-space: pre;" direction="ltr">Translation</text><text x="28" y="22" font-family="Virgil, Papyrus, Segoe UI Emoji" font-size="9.56679636835279px" fill="#e45d61" text-anchor="middle" style="white-space: pre;" direction="ltr">framework</text></g><g transform="translate(314.58527885862514 159.78501945525295) rotate(0 31 19.5)"><text x="31" y="9" font-family="Virgil, Papyrus, Segoe UI Emoji" font-size="9.56679636835279px" fill="#e45d61" text-anchor="middle" style="white-space: pre;" direction="ltr">Command line</text><text x="31" y="22" font-family="Virgil, Papyrus, Segoe UI Emoji" font-size="9.56679636835279px" fill="#e45d61" text-anchor="middle" style="white-space: pre;" direction="ltr">interface</text><text x="31" y="35" font-family="Virgil, Papyrus, Segoe UI Emoji" font-size="9.56679636835279px" fill="#e45d61" text-anchor="middle" style="white-space: pre;" direction="ltr">parser</text></g><g transform="translate(415.5852788586251 159.78501945525295) rotate(0 27 19.5)"><text x="27" y="9" font-family="Virgil, Papyrus, Segoe UI Emoji" font-size="9.56679636835279px" fill="#e45d61" text-anchor="middle" style="white-space: pre;" direction="ltr">Additional</text><text x="27" y="22" font-family="Virgil, Papyrus, Segoe UI Emoji" font-size="9.56679636835279px" fill="#e45d61" text-anchor="middle" style="white-space: pre;" direction="ltr">data</text><text x="27" y="35" font-family="Virgil, Papyrus, Segoe UI Emoji" font-size="9.56679636835279px" fill="#e45d61" text-anchor="middle" style="white-space: pre;" direction="ltr">structures</text></g></svg>