<svg version="1.1" xmlns="http://www.w3.org/2000/svg" viewBox="0 0 944.3333333333335 319.64029399048866" width="1888.666666666667" height="639.2805879809773">
  <!-- svg-source:excalidraw -->

  <rect x="0" y="0" width="944.3333333333335" height="319.64029399048866" fill="#ffffff"></rect><g stroke-linecap="round" transform="translate(10 134.06939040207527) rotate(0 462.16666666666674 58.696173800259345)"><path d="M0 0 C0 0, 0 0, 0 0 M0 0 C0 0, 0 0, 0 0 M0.49 22.31 C4.23 21.26, 7.27 16.17, 19.16 0.15 M0.48 22.33 C6.47 13.45, 17.74 4.42, 21.68 0.4 M-1.82 49.79 C14.45 30.91, 32.97 15.93, 45.85 1.14 M-1.31 47.98 C11.27 33.53, 21.72 22.88, 42.79 1.36 M-1.67 75.47 C22.35 49.34, 37.82 29.85, 62.05 0.21 M1.19 72.84 C14.88 59.94, 28.13 43.8, 63.22 -1.81 M0.24 95.86 C32.71 56.63, 63.72 23.01, 85.89 -2.24 M-1.56 96.58 C35.08 61.9, 67.29 23.57, 86.81 -1.43 M3.62 118.27 C27.76 92.51, 52.97 58.5, 110.03 3.51 M3.92 118.28 C28.64 92.95, 51.47 60.74, 104.46 0.2 M21.88 118.23 C53.98 81.16, 94.35 44.62, 129.8 -3.52 M22.25 120.92 C63.66 75.29, 103.06 30.69, 125.04 1.95 M46.27 118.61 C81.99 82.59, 116.26 42.85, 150.55 1.27 M44.31 117.66 C83.29 73.75, 124.07 29.88, 149.7 -0.82 M65.13 118.18 C88.32 92.85, 110.35 74.51, 172.46 3.81 M65.25 119.53 C97.77 81.6, 127.92 46.65, 167.52 -1.31 M89.63 120.81 C122.29 82.33, 153.01 40.43, 189.93 3.59 M85.16 119.73 C111.91 90.82, 137.11 63.54, 189.78 2.05 M110.47 118.68 C146.24 81.33, 175.11 40.04, 211.64 -2.32 M108.67 119.98 C141.41 81.85, 175.76 41.11, 212.91 0.72 M126.65 115.55 C150.29 94.53, 175.17 65.01, 233.36 3.96 M128.54 120.89 C171.74 73.47, 210.5 25.23, 234.12 -1.56 M150.24 117.97 C174.76 94.72, 195.17 67.06, 250.64 -3.61 M149.35 120.38 C188.84 76.48, 227.02 30.8, 255.06 1.61 M171.11 118.6 C190.26 92.87, 221.14 61.89, 279.6 0.23 M171.06 119.99 C204.34 79.51, 234.85 45.36, 277.37 1.65 M193.7 119.4 C211.12 91.17, 235.47 68.75, 297.64 3.34 M192.68 119.3 C234.4 71.26, 274.47 25.13, 298.4 1.39 M217.06 123.66 C254.91 70.64, 296.17 28.15, 320.25 3.38 M215.23 119.05 C254.3 77.4, 293.6 28.81, 318.74 1.43 M234.3 116.21 C262.65 90, 294.36 55.56, 341.69 -0.92 M235.97 120.49 C273.02 73.87, 315.99 26.53, 337.92 -1.47 M257.34 123.24 C289.41 79.28, 326.44 36.54, 363.15 -1.74 M256.11 120.28 C287.98 78.91, 322.73 39.71, 361.33 0.72 M276.34 120.49 C306.87 90.4, 336.14 55.21, 384.06 -1.97 M279.04 117.86 C312.72 80.33, 349.81 38.34, 382.51 -1.32 M295.73 121.27 C324.74 93.71, 341.82 74.5, 402.97 -3.4 M297.34 118.58 C318.9 94.41, 342.16 70.73, 402.8 0.63 M323.03 119.71 C354.79 77.98, 389.75 37.42, 424.87 -2.52 M320.34 120.05 C353.24 80.33, 387.65 43.22, 425.61 -0.32 M341.54 122.03 C370.74 84.98, 401.7 47.55, 441.31 1.5 M341.79 118.55 C379.12 76.08, 416.78 29.13, 443.39 0.97 M363.12 121.74 C386.34 91.36, 415.4 62.08, 467.14 -1.92 M363.49 119.37 C397.31 77.72, 431.5 34.53, 465.24 0.04 M384.94 122.95 C420.16 74.65, 461.3 31.62, 489.27 -3.56 M382.89 119.21 C416.17 80.54, 450.15 44.99, 488.55 1.23 M402.22 115.56 C427.14 90.25, 445.89 66.95, 511.42 0.89 M404.71 120.54 C433.73 85.07, 465.19 49.29, 510.62 0 M428.99 122.56 C451.44 91.1, 468.51 70.13, 526.85 2.03 M424.62 118.01 C449.97 90.44, 475.04 66.39, 528.3 1.35 M446.16 120.02 C487.37 76.22, 527.42 27.93, 555.14 0.06 M448.12 121.53 C473.3 89.1, 499.73 58.04, 549.58 -1.81 M464.95 121.29 C488.77 91.47, 518.17 72.16, 574.91 -4.01 M468.88 119.63 C498.08 86.01, 523.94 58.07, 573.23 -2.3 M487.62 116.83 C518.39 82.42, 548.68 53.8, 591.94 -0.35 M488.35 118.42 C525.91 80.49, 560.81 35.44, 591.8 0.46 M506.94 118.42 C538.76 93.63, 559.73 64.39, 614.53 1.93 M510.09 120.89 C536.8 87.6, 564.58 60.85, 613.82 -0.17 M534.19 119.12 C562.89 84.2, 599.44 39.1, 638.32 2.56 M530.66 118.05 C567.09 79.87, 599.58 44.03, 635.54 0.83 M555.98 116.61 C582.97 84.32, 618.08 50.19, 653.65 -1.67 M555.28 119.32 C591.61 73.92, 630.25 28.37, 655.11 -0.5 M570.98 120.36 C600.35 86.15, 623.6 56.91, 681.67 -0.91 M573.49 118.89 C609.31 81.95, 641.16 44.89, 679.62 2.02 M594.63 118.91 C630.33 85.28, 659.06 45.06, 699.1 3.03 M594.69 118.13 C631.77 80.88, 665.77 39.24, 700.69 -0.87 M615.97 119.14 C654.31 74.28, 692.08 30.45, 722.93 3.9 M615.86 119.89 C653.29 78.24, 686.66 38.95, 722.1 0.43 M642.32 121.49 C664.39 92.91, 686.24 63.66, 743.23 -1.73 M637.12 118.97 C669.64 81.94, 707.33 41.21, 743.4 0.84 M656.04 119.21 C688.74 86.81, 710.65 59.28, 759.88 0.78 M661.37 120.42 C696.03 81.85, 729.72 40.13, 763.58 -1.1 M682.68 122.39 C721.03 76.23, 756.11 37.94, 787.3 3.4 M681.27 118.7 C711.24 80.08, 742.16 42.49, 784.65 -0.81 M702.27 122.16 C733.22 84.82, 762.31 50.77, 803.22 -1.35 M701.49 121.03 C742.96 71.36, 784.95 26.92, 807.26 -1.3 M722.21 118.51 C754.28 85.15, 782.35 53.88, 824.77 3.65 M722.39 118.32 C759.57 78.73, 796.28 36.1, 825.72 1.94 M744.59 116.48 C773.34 84.5, 800.41 52.5, 843.84 0.31 M742.26 120.47 C779.16 77.84, 817.06 38.74, 846.21 0.3 M762.31 118.16 C787.82 93.98, 810.82 65.3, 867.92 3.13 M764.3 119.55 C807.05 71.41, 848.25 27.14, 870.46 -1.01 M787.83 122 C815.32 84.41, 841.35 57.91, 887.47 -0.59 M788.27 120.17 C809.38 90.33, 833.07 62.71, 890.04 0.35 M809.9 122 C845.26 72.85, 885.29 23.6, 911.98 -2.7 M806.07 117.8 C848.86 72.75, 888.51 25.98, 913.29 -1.01 M830.35 122.97 C866.37 81.89, 901.61 34.41, 930.83 5.53 M829.38 117.24 C865.29 77.55, 905.36 36.05, 929.03 4.71 M852.79 115.82 C876.38 93.87, 893.13 69.73, 928.75 30.71 M849.3 118.91 C877.57 88.68, 903.19 59.36, 928.93 26.91 M871.4 116.74 C895.93 90.46, 915.26 64.35, 929.98 55.32 M871.96 117.26 C884.92 100.13, 900.1 85.49, 930.49 51.66 M891.66 118.53 C903.01 106.85, 917.09 90.27, 931.07 76.03 M894.17 119.14 C907.49 103.94, 921.87 84.14, 928.79 79.2 M910.44 122.54 C919.12 114.14, 927.9 107.83, 925.37 104.32 M914.33 118.96 C917.59 114.55, 919.88 113, 927.8 99.65 M-0.01 117.38 C-0.01 117.38, -0.01 117.38, -0.01 117.38 M-0.01 117.38 C-0.01 117.38, -0.01 117.38, -0.01 117.38 M25.76 120.01 C12.79 111.31, 9.64 99.92, -3.67 97.03 M25.32 116.82 C16.77 111.06, 10.98 105.8, -1.08 97.42 M47.31 118.7 C31.75 107.35, 20.09 91.29, 3.39 78.33 M49.27 117.06 C35.63 108.22, 26.6 96.25, 1.07 76.44 M72.98 119.81 C52.91 105.12, 38.26 84.99, -1.85 51.6 M74.75 115.63 C51.3 97.4, 27.03 77.58, -0.55 52.67 M101.32 121.11 C62.64 87.34, 31.98 64.09, 1.91 31.93 M96.15 116.98 C66.36 87.3, 35.19 62.27, 1.63 34.11 M124.43 121.06 C80 79.5, 35.04 42.63, 3.27 14.99 M120.87 115.98 C73.99 77.8, 26 34.4, -0.17 11.21 M146 114.67 C89.88 64.52, 31.62 19.97, 8.18 -3.17 M146.24 116.86 C100.02 75.08, 51.07 35.75, 3.87 -4.27 M167.74 114.75 C121.27 73.94, 63.4 28.97, 31.69 -8.18 M168.88 117.63 C127.55 82.8, 83.3 43.53, 27.74 -6.16 M191.93 117.24 C152.7 84.38, 113.94 43.31, 54.69 -2.92 M194.05 118.47 C164.1 91.11, 135.1 65.02, 53.3 -6.33 M223.39 120.99 C174.5 78.71, 124.44 37.86, 77 -6.27 M220.57 116.74 C177.5 82.12, 129.42 40.87, 78.16 -6.31 M244.27 113.83 C199.8 78.87, 157.24 38.67, 100.52 -1.65 M242.38 116.06 C208.71 90.72, 173.33 59.15, 101.74 -6.73 M264 116.35 C212.19 69.83, 161.77 28.37, 127.91 -7.04 M269.49 117.29 C231.25 80.74, 191.71 46.62, 126.84 -6.21 M289.83 115.22 C248.26 82.45, 202.83 43.06, 148.66 -7.14 M293.33 118.96 C256.3 89, 223.41 55.59, 152.58 -6.34 M313.3 116.48 C263.66 70.37, 208.32 25.29, 173.58 -4.08 M316.07 117.64 C275.59 85.22, 238.48 51.37, 175.71 -7.33 M344.29 117.34 C311.03 86.62, 280.72 59.72, 197.24 -4.12 M343.59 118.95 C294.08 79.97, 248.83 37.69, 200.03 -7.59 M369.67 116.22 C321.44 77.04, 270.78 31.86, 224.06 -5.84 M367.01 118.64 C333.14 88.28, 297.77 60.35, 225.25 -4.72 M388.19 117.23 C336.26 67.84, 282.67 19.46, 250.99 -6.13 M392.39 118.25 C344.04 81.2, 296.7 40.1, 248.6 -6.45 M417.1 116.17 C357.16 65.79, 304.36 18.47, 269.54 -4.33 M414.32 118.22 C374.05 88.15, 335.4 54.7, 273.76 -7.62 M438.22 120.39 C385.44 76.64, 335.8 26.83, 300.27 -4.95 M436.79 116.85 C409.38 91.93, 376.45 62.46, 296.14 -5.8 M464.44 114.05 C429.75 91.73, 399.18 65.39, 323.31 -4.42 M462.58 118.74 C416.37 75.01, 368.75 35.85, 320.36 -4.88 M486.18 119.43 C433.9 76.8, 387.11 25.37, 344.34 -3.22 M486.65 119.15 C446.28 84.02, 406.31 46.9, 345.04 -4.09 M513.44 120.72 C461.48 75.05, 412.31 30.88, 369.31 -3.87 M512.95 119.01 C479.51 91.46, 451.35 65.17, 372.47 -4.89 M534.5 114.1 C505.3 96.51, 473.27 65.45, 398.53 -7.12 M536.14 118.02 C483.54 73.8, 435.15 29.14, 393.5 -3.98 M557.97 119.51 C505.55 69.9, 456.32 27.84, 421.09 -6.64 M562.38 117.63 C518.36 81.65, 478.39 43.25, 420.85 -4.93 M583.24 113.96 C537.67 79.41, 484.74 31.83, 441.37 -7.74 M586.76 117.43 C531.79 71.2, 482.99 29.99, 442.54 -5.73 M611.01 116.82 C571.2 90.04, 536 50.83, 465.07 -7.55 M610.64 115.59 C552.13 66.7, 496.81 20.43, 466.78 -3.85 M637.3 121.66 C596.59 81.02, 564.58 52.36, 489.95 -9 M634.56 115.78 C591.56 80.56, 543.76 39.05, 491.51 -7.11 M660.18 114.23 C621.15 90.97, 588.5 57.26, 516.56 -8.32 M659.82 116.35 C605.24 73.32, 554.06 28.3, 518.13 -6.06 M681.76 116.34 C641.26 84.94, 604.47 53.2, 539.02 -9.04 M681.4 117.25 C647.15 89.91, 612.66 57.59, 541.04 -4.82 M710.72 119.1 C651.32 74.41, 605.71 23.1, 562.99 -2.18 M709.31 116.47 C669.7 85.58, 631.51 54.27, 564.57 -6.18 M732.79 120.23 C689.4 81.83, 642.8 48.96, 592.19 -8.9 M729.96 118.43 C698.89 86.17, 669.03 60.24, 592.34 -7.13 M752.75 119.9 C710.96 83.35, 672.37 44.25, 614.9 -3.28 M755.07 116.94 C703.96 72.97, 652.16 26.41, 612.61 -6.46 M777.18 114.71 C735.48 74.15, 695.22 35.06, 637.96 -4.46 M779.23 116.37 C743.47 87.14, 702.33 52.69, 639.19 -5.83 M808.49 117.58 C751.84 69.73, 700.21 23.53, 661.48 -2.62 M804.86 118.55 C750.66 65.11, 694.74 17.77, 665.03 -4.63 M831.38 114.96 C784.82 75.58, 731.89 34.27, 688.92 -3.16 M827.51 119.23 C778.93 76.55, 731.86 33.74, 687.15 -4.97 M855.34 120.17 C813.38 79.55, 771.17 44.1, 713.53 -5.4 M853.28 116.47 C818.79 85.1, 782.12 56.91, 711.96 -7.36 M876.68 121.25 C827.52 67.12, 780.44 21.89, 736.84 -5.32 M879.67 117.6 C838.69 79.09, 798.17 43.42, 736.65 -6.19 M901.26 114.89 C865.6 83.25, 827.91 53.26, 762.73 -7.71 M901.21 116.35 C859.03 82.42, 814.24 41.79, 762.07 -6.87 M921.75 117.7 C893.74 88.72, 856.66 57.09, 788.08 -8.14 M925.61 115.19 C880.95 78.71, 838.71 43.15, 786.37 -4.63 M922.22 96.4 C897.41 72.96, 871.31 53.72, 812.87 -5.15 M925.21 94.64 C885.28 58.56, 846.24 26.6, 809.84 -5.61 M927.6 74.82 C896 52.01, 871.42 25.6, 834.61 -2.99 M925.3 75.44 C898.76 54.65, 875.91 28.97, 832.34 -6.38 M922.97 48.76 C911.07 36.65, 896.54 27.96, 858.89 -6.26 M926.31 52.49 C904.59 30.61, 879.22 11.35, 858.59 -5.61 M921.72 29.61 C908.32 17.47, 894.5 3.08, 885.32 -8.16 M926.83 29.59 C915.57 22.53, 903.6 12.16, 883.14 -5.05 M922.27 11.56 C919.91 5.24, 917.17 -0.73, 906.34 -4.4 M927.24 9.85 C921.51 6.08, 916.12 0.56, 907.92 -4.44" stroke="#dc9498" stroke-width="2" fill="none"></path><path d="M1.03 1.35 C192.35 -0.62, 386.52 0.1, 924.18 1.38 M0.5 -0.16 C302.34 2.49, 605.34 2.05, 924.32 -0.26 M924.78 1.44 C925.95 46.83, 923.79 90.2, 924.68 118.63 M924.15 0.77 C926.28 24.91, 925.86 51.06, 924.8 116.87 M924.25 118.48 C604.73 111.23, 285.77 110.14, 0.03 117.88 M924.49 118.05 C558.48 114.95, 192.93 113.69, -0.12 117.54 M-2.55 116 C-0.79 89.4, -0.18 54.15, -0.62 1.9 M1.07 118.17 C-3.82 81.34, -2.58 39.87, 0.71 -0.79" stroke="#e45d61" stroke-width="4" fill="none"></path></g><g transform="translate(285.45885225260105 274.64029399048866) rotate(0 158.99999999999997 17.5)"><text x="159" y="25" font-family="Virgil, Papyrus, Segoe UI Emoji" font-size="28px" fill="#181818" text-anchor="middle" style="white-space: pre;" direction="ltr">Colorize Java Commons</text></g><g transform="translate(10.622060207637702 89.07555123216599) rotate(0 79.22503242542153 13.453307392996123)"><text x="79.22503242542155" y="18.906614785992222" font-family="Virgil, Papyrus, Segoe UI Emoji" font-size="21.52529182879378px" fill="#181818" text-anchor="middle" style="white-space: pre;" direction="ltr">All applications</text></g><g transform="translate(11.21998498065976 48.26718547341119) rotate(0 200.60376134889756 13.453307392996123)"><text x="200.60376134889756" y="18.906614785992222" font-family="Virgil, Papyrus, Segoe UI Emoji" font-size="21.525291828793776px" fill="#181818" text-anchor="middle" style="white-space: pre;" direction="ltr">GUI applications (desktop/mobile/web)</text></g><g transform="translate(13.611684072747934 10) rotate(0 109.12127107652401 13.453307392996123)"><text x="109.12127107652401" y="18.906614785992222" font-family="Virgil, Papyrus, Segoe UI Emoji" font-size="21.525291828793776px" fill="#181818" text-anchor="middle" style="white-space: pre;" direction="ltr">Desktop applications</text></g><g stroke-linecap="round" transform="translate(17.474059662775616 144.41324342126177) rotate(0 57.03564724394159 48.814292686256294)"><path d="M1.65 3.68 L114.79 2.53 L117.77 99.4 L-2.02 96.17" stroke="none" stroke-width="0" fill="#ffffff"></path><path d="M1.69 2.9 C39.85 2.48, 87.77 -1.15, 110.48 0.91 M1.25 -0.3 C30.36 -0.5, 61.87 -0.08, 113.07 1.3 M112.48 1.19 C113.32 31.65, 116.57 58.23, 117.61 101.1 M114.44 -0.44 C112.09 23.93, 114.7 45.23, 115.29 99.21 M114.06 100.2 C85.44 100.98, 60.97 96.14, -1.63 95.63 M115.83 96.02 C78.12 97.72, 40.76 98.29, -0.33 96.69 M3.49 101.11 C-2.51 62.9, -0.3 35.52, 2.2 -0.41 M-1.68 96.98 C0.28 64.09, 0.96 35.06, 1.91 1.77" stroke="#e45d61" stroke-width="2" fill="none"></path></g><g stroke-linecap="round" transform="translate(150.04340190545065 143.03826199740593) rotate(0 57.03564724394158 48.814292686256294)"><path d="M0.72 2.53 L117.77 1.77 L112.05 96.17 L-2.63 101.26" stroke="none" stroke-width="0" fill="#ffffff"></path><path d="M-2.29 2.05 C35.53 -3.24, 60.49 -0.74, 112.87 3.42 M-0.42 -0.41 C34.96 0.34, 68.3 1.64, 114.15 1.06 M112.28 1.98 C114.75 36.46, 116.83 78.62, 111.56 97.14 M112.33 0.76 C115.3 28.91, 115.65 61.6, 112.88 99.6 M112.84 100.45 C78.86 97.07, 38.64 97.09, 0.81 93.94 M114.67 99 C86.07 97.74, 58.18 94.86, 0.7 99.29 M-0.89 95.62 C-0.38 70.18, 0.49 35.68, 0.98 1.61 M1.07 95.78 C3.39 73.13, 3.55 48.79, 0.83 1.84" stroke="#e45d61" stroke-width="2" fill="none"></path></g><g stroke-linecap="round" transform="translate(280.5574055087042 143.03826199740593) rotate(0 57.03564724394158 48.814292686256294)"><path d="M3.7 1.77 L112.05 -1.46 L111.44 101.26 L3.91 101.39" stroke="none" stroke-width="0" fill="#fff"></path><path d="M3.49 -1.59 C38.89 -0.26, 83.76 2.25, 114.22 2.5 M0.31 0 C31.53 1.77, 65.14 1.53, 115.77 -0.8 M115.53 -1.12 C116.73 35.67, 110.69 63.91, 114.37 98.36 M114.94 -1.09 C113.59 28.7, 111.18 56.22, 114.54 97.62 M115.76 95.6 C70.9 97.24, 31.8 95.55, -2.26 101.15 M113.85 99.57 C88.69 98.26, 64.68 100.86, 0.3 99.38 M1.32 100.95 C2.63 59.45, 1.42 23.69, -1.63 -3.36 M1.75 98.44 C0.87 73.26, -0.22 47.19, 0.36 1.26" stroke="#e45d61" stroke-width="2" fill="none"></path></g><g stroke-linecap="round" transform="translate(413.12674775137936 143.03826199740593) rotate(0 57.03564724394161 48.814292686256294)"><path d="M-2.02 -1.46 L111.44 3.63 L117.98 101.39 L1.54 101.48" stroke="none" stroke-width="0" fill="#fff"></path><path d="M-3.59 0.91 C38.85 4.33, 80.26 3.41, 113.48 -0.84 M-1 1.3 C31.96 1.06, 65.45 -0.8, 114.67 -0.9 M117.61 3.47 C112.27 33.63, 115.08 68.95, 113.18 94.15 M115.29 1.58 C113.72 34.99, 115.39 66.03, 115.35 97.01 M112.44 95.63 C72.62 92.79, 27.29 100, -3.22 98.82 M113.74 96.69 C72.71 101.51, 30.24 101.6, 1.74 97.19 M2.2 97.22 C0.34 74.86, -2.28 45.5, -1.29 2.14 M1.91 99.4 C-0.88 79.21, -1.35 58.37, 1.85 0.89" stroke="#e45d61" stroke-width="2" fill="none"></path></g><g transform="translate(297.58527885862526 181.76426718547344) rotate(0 41 10)"><text x="41" y="14" font-family="Virgil, Papyrus, Segoe UI Emoji" font-size="16px" fill="#181818" text-anchor="middle" style="white-space: pre;" direction="ltr">Statistics</text></g><g transform="translate(21.616947686986705 164.15596627756162) rotate(0 57.99999999999999 30.00000000000003)"><text x="58" y="14" font-family="Virgil, Papyrus, Segoe UI Emoji" font-size="16px" fill="#181818" text-anchor="middle" style="white-space: pre;" direction="ltr">Cross-platform</text><text x="58" y="34" font-family="Virgil, Papyrus, Segoe UI Emoji" font-size="16px" fill="#181818" text-anchor="middle" style="white-space: pre;" direction="ltr">application</text><text x="58" y="54" font-family="Virgil, Papyrus, Segoe UI Emoji" font-size="16px" fill="#181818" text-anchor="middle" style="white-space: pre;" direction="ltr">data</text></g><g stroke-linecap="round" transform="translate(547.2100935973078 143.03826199740593) rotate(0 57.03564724394158 48.814292686256294)"><path d="M1.52 -2.93 L111.82 -0.5 L116.14 96.02 L-0.3 99.04" stroke="none" stroke-width="0" fill="#fff"></path><path d="M0.24 2.35 C34.95 3.31, 79.79 4.07, 111.68 -1.11 M1.32 0.57 C35.94 -1.2, 76.46 -2.09, 113.72 -1.34 M115.67 1.92 C114.74 40.03, 115.06 77.51, 114.53 101.61 M115.42 -0.99 C113.63 36.05, 112.83 75.68, 112.7 99.43 M111.09 95.38 C90.1 91.71, 63.27 98.99, -2.13 100.03 M115.94 97.7 C86.71 98.04, 55.14 99.28, 0.51 99.02 M-3.97 94.29 C1.34 75.53, 3.09 47.48, 0.4 -1.11 M-1.67 99.54 C-0.78 71.72, -0.52 46.45, 1.06 0.81" stroke="#e45d61" stroke-width="2" fill="none"></path></g><g transform="translate(551.9212062256811 161.3521400778211) rotate(0 58 30)"><text x="58" y="14" font-family="Virgil, Papyrus, Segoe UI Emoji" font-size="16px" fill="#181818" text-anchor="middle" style="white-space: pre;" direction="ltr">Cross-platform</text><text x="58" y="34" font-family="Virgil, Papyrus, Segoe UI Emoji" font-size="16px" fill="#181818" text-anchor="middle" style="white-space: pre;" direction="ltr">HTTP</text><text x="58" y="54" font-family="Virgil, Papyrus, Segoe UI Emoji" font-size="16px" fill="#181818" text-anchor="middle" style="white-space: pre;" direction="ltr">requests</text></g><g stroke-linecap="round" transform="translate(677.7240972005617 143.03826199740593) rotate(0 57.03564724394158 48.814292686256294)"><path d="M0.46 -3.03 L115.66 0.35 L113.06 100.11 L-3.95 97.68" stroke="none" stroke-width="0" fill="#fff"></path><path d="M-0.36 -2.3 C27.05 -5.2, 48.35 0.03, 115.62 -3.51 M1.91 -0.22 C44.6 -1.7, 86.12 -0.77, 114.14 -0.19 M113.09 1.6 C118.82 37.63, 119.07 70.38, 116.27 99.56 M112.67 -1.57 C111.3 33.8, 112.56 67.23, 114.44 98.61 M113.96 100.24 C77.44 96.53, 40.83 103.19, -1.99 95.52 M112.59 96.49 C82.49 97.28, 45.98 95.69, 1.68 95.72 M-2.09 99.48 C1.46 68.18, 3.84 43.85, -2.45 3.72 M1.66 99.03 C0.84 69.87, 2.83 43.44, 1.72 1.18" stroke="#e45d61" stroke-width="2" fill="none"></path></g><g transform="translate(695.8417639429314 170.55804150453963) rotate(0 40 20)"><text x="40" y="14" font-family="Virgil, Papyrus, Segoe UI Emoji" font-size="16px" fill="#181818" text-anchor="middle" style="white-space: pre;" direction="ltr">Animation</text><text x="40" y="34" font-family="Virgil, Papyrus, Segoe UI Emoji" font-size="16px" fill="#181818" text-anchor="middle" style="white-space: pre;" direction="ltr">framework</text></g><g stroke-linecap="round" transform="translate(810.2934394432364 143.03826199740593) rotate(0 57.03564724394158 48.814292686256294)"><path d="M-0.59 1.93 L112.09 3.19 L115.05 94.98 L1.06 98.69" stroke="none" stroke-width="0" fill="#fff"></path><path d="M2.56 2.18 C24.08 3.86, 52.14 -0.3, 115.62 1.68 M-0.52 -1.59 C28.16 -1.17, 58.19 -3.14, 114.51 1.83 M110.59 3.04 C111.44 24.12, 115.56 46.63, 113.38 99.03 M113.02 1.22 C113.41 21.97, 112.72 45.79, 113.38 98.12 M112.97 100.32 C73.35 101.84, 37.52 95.95, 2.66 94.33 M115.85 98.77 C87.51 94.12, 63.3 95.25, -1.62 98.54 M3.19 97.97 C-2.59 56.05, 1.6 22.84, -3.27 -1.72 M1.37 97.8 C0.17 75.54, 0.76 52.87, 1.4 0.17" stroke="#e45d61" stroke-width="2" fill="none"></path></g><g transform="translate(826.2571335927369 159.04485516645053) rotate(0 39 30.00000000000003)"><text x="39" y="14" font-family="Virgil, Papyrus, Segoe UI Emoji" font-size="16px" fill="#181818" text-anchor="middle" style="white-space: pre;" direction="ltr">Swing</text><text x="39" y="34" font-family="Virgil, Papyrus, Segoe UI Emoji" font-size="16px" fill="#181818" text-anchor="middle" style="white-space: pre;" direction="ltr">component</text><text x="39" y="54" font-family="Virgil, Papyrus, Segoe UI Emoji" font-size="16px" fill="#181818" text-anchor="middle" style="white-space: pre;" direction="ltr">library</text></g><g stroke-linecap="round"><g transform="translate(257.01767185473415 22.85538261997408) rotate(0 328.8364432466827 -0.8603306195011555)"><path d="M1.41 0.06 C179.51 -2.1, 360.08 -3.42, 656.27 0.32" stroke="#adadad" stroke-width="2.5" fill="none" stroke-dasharray="8 10"></path></g><g transform="translate(257.01767185473415 22.85538261997408) rotate(0 328.8364432466827 -0.8603306195011555)"><path d="M631.5 10.47 C632.51 8.64, 639.66 2.57, 659.06 1.12" stroke="#adadad" stroke-width="2.5" fill="none"></path></g><g transform="translate(257.01767185473415 22.85538261997408) rotate(0 328.8364432466827 -0.8603306195011555)"><path d="M631.68 -10.05 C632.54 -6.22, 639.64 -6.62, 659.06 1.12" stroke="#adadad" stroke-width="2.5" fill="none"></path></g></g><mask></mask><g stroke-linecap="round"><g transform="translate(433.4054798962386 60.82360570687422) rotate(0 172.59555763747596 1.1474742664016162)"><path d="M-1.93 0.09 C85.66 0.9, 171.81 3.17, 347.12 1.74" stroke="#adadad" stroke-width="2.5" fill="none" stroke-dasharray="8 10"></path></g><g transform="translate(433.4054798962386 60.82360570687422) rotate(0 172.59555763747596 1.1474742664016162)"><path d="M316.03 12.23 C327.08 8.2, 335.77 9.1, 350.7 4.39" stroke="#adadad" stroke-width="2.5" fill="none"></path></g><g transform="translate(433.4054798962386 60.82360570687422) rotate(0 172.59555763747596 1.1474742664016162)"><path d="M315.97 -8.29 C326.64 -7.26, 335.34 -1.3, 350.7 4.39" stroke="#adadad" stroke-width="2.5" fill="none"></path></g></g><mask></mask><g stroke-linecap="round"><g transform="translate(194.79166666666663 104.37035478144367) rotate(0 230.6836448713569 0.21144897485802971)"><path d="M0.33 0.27 C131.63 1.31, 261.19 3.55, 461.03 -1.28" stroke="#adadad" stroke-width="2.5" fill="none" stroke-dasharray="8 10"></path></g><g transform="translate(194.79166666666663 104.37035478144367) rotate(0 230.6836448713569 0.21144897485802971)"><path d="M433.73 10.03 C444.96 5.55, 452.36 7.3, 464.58 -4.02" stroke="#adadad" stroke-width="2.5" fill="none"></path></g><g transform="translate(194.79166666666663 104.37035478144367) rotate(0 230.6836448713569 0.21144897485802971)"><path d="M433.39 -10.49 C444.47 -9.17, 451.97 -1.62, 464.58 -4.02" stroke="#adadad" stroke-width="2.5" fill="none"></path></g></g><mask></mask><g transform="translate(162.0058365758756 171.21822308690014) rotate(0 45.5 20)"><text x="45.5" y="14" font-family="Virgil, Papyrus, Segoe UI Emoji" font-size="16px" fill="#181818" text-anchor="middle" style="white-space: pre;" direction="ltr">Translation</text><text x="45.5" y="34" font-family="Virgil, Papyrus, Segoe UI Emoji" font-size="16px" fill="#181818" text-anchor="middle" style="white-space: pre;" direction="ltr">framework</text></g><g transform="translate(422.5852788586251 164.28501945525295) rotate(0 50 30)"><text x="50" y="14" font-family="Virgil, Papyrus, Segoe UI Emoji" font-size="16px" fill="#181818" text-anchor="middle" style="white-space: pre;" direction="ltr">Command line</text><text x="50" y="34" font-family="Virgil, Papyrus, Segoe UI Emoji" font-size="16px" fill="#181818" text-anchor="middle" style="white-space: pre;" direction="ltr">interface</text><text x="50" y="54" font-family="Virgil, Papyrus, Segoe UI Emoji" font-size="16px" fill="#181818" text-anchor="middle" style="white-space: pre;" direction="ltr">parser</text></g></svg>